<svg width="48" height="49" viewBox="0 0 48 49" fill="none" xmlns="http://www.w3.org/2000/svg">
<circle cx="24" cy="24.5" r="24" fill="white"/>
<path d="M24 40.5C27.1645 40.5 30.2579 39.5616 32.8891 37.8035C35.5203 36.0454 37.5711 33.5466 38.7821 30.6229C39.9931 27.6993 40.3099 24.4823 39.6926 21.3786C39.0752 18.2749 37.5513 15.4239 35.3137 13.1863C33.0761 10.9487 30.2251 9.42481 27.1214 8.80744C24.0177 8.19008 20.8007 8.50693 17.8771 9.71793C14.9534 10.9289 12.4546 12.9797 10.6965 15.6109C8.93838 18.2421 8 21.3355 8 24.5C8.0048 28.742 9.69205 32.8089 12.6916 35.8084C15.6911 38.808 19.758 40.4952 24 40.5ZM25.0667 10.6877C28.2007 10.9284 31.1588 12.2315 33.4517 14.3816C30.9051 15.909 28.0301 16.805 25.0667 16.9949V10.6877ZM25.0667 19.1336C28.565 18.9336 31.9557 17.8511 34.9227 15.9869C36.6002 18.1292 37.6056 20.7203 37.8123 23.4333H25.0667V19.1336ZM25.0667 25.5667H37.8123C37.6056 28.2797 36.6002 30.8708 34.9227 33.0131C31.9557 31.1489 28.565 30.0664 25.0667 29.8664V25.5667ZM25.0667 32.0051C28.0301 32.195 30.9051 33.091 33.4517 34.6184C31.1588 36.7685 28.2007 38.0716 25.0667 38.3123V32.0051ZM22.9333 38.3123C19.7935 38.0718 16.8304 36.7642 14.5365 34.6067C17.0894 33.0875 19.9682 32.2 22.9333 32.0179V38.3123ZM22.9333 10.6856V16.9789C19.9685 16.7978 17.0897 15.9114 14.5365 14.3933C16.8304 12.2358 19.7935 10.9282 22.9333 10.6877V10.6856ZM13.072 15.9933C16.0435 17.8484 19.4357 18.9223 22.9333 19.1155V23.4333H10.1877C10.3944 20.7232 11.3979 18.1346 13.072 15.9933ZM22.9333 25.5667V29.8845C19.4357 30.0777 16.0435 31.1516 13.072 33.0067C11.3979 30.8654 10.3944 28.2769 10.1877 25.5667H22.9333Z" fill="#0B8D99"/>
</svg>
