<svg width="48" height="49" viewBox="0 0 48 49" fill="none" xmlns="http://www.w3.org/2000/svg">
<circle cx="24" cy="24.5" r="24" fill="white"/>
<g clip-path="url(#clip0_509_3912)">
<path d="M24 8.5C20.8355 8.5 17.7421 9.43838 15.1109 11.1965C12.4797 12.9546 10.4289 15.4534 9.21793 18.3771C8.00693 21.3007 7.69008 24.5177 8.30744 27.6214C8.92481 30.7251 10.4487 33.5761 12.6863 35.8137C14.9239 38.0513 17.7749 39.5752 20.8786 40.1926C23.9823 40.8099 27.1993 40.4931 30.1229 39.2821C33.0466 38.0711 35.5454 36.0203 37.3035 33.3891C39.0616 30.7579 40 27.6645 40 24.5C39.9952 20.258 38.308 16.1911 35.3084 13.1916C32.3089 10.1921 28.242 8.5048 24 8.5V8.5ZM24 10.6333C24.5323 10.6356 25.0641 10.6687 25.5925 10.7325L24 12.3251L22.4075 10.7325C22.936 10.6687 23.4677 10.6356 24 10.6333ZM28.0619 23.2531L26.5344 27.7H21.4656L19.9381 23.2531L24 20.4605L28.0619 23.2531ZM19.9467 11.2403C19.9751 11.292 20.008 11.3413 20.0448 11.3875L22.9333 14.2749V18.6056L18.4192 21.7085L14.2933 21.0024L12.1984 17.5507C12.1659 17.5089 12.1303 17.4696 12.0917 17.4333C13.8521 14.4668 16.6513 12.2598 19.9467 11.2403ZM11.008 19.7L12.1717 21.62L10.2517 22.7869C10.3836 21.7322 10.6374 20.6963 11.008 19.7ZM13.3109 33.3235C11.4353 31.0522 10.3359 28.2401 10.1739 25.2989C10.2255 25.2808 10.2757 25.2591 10.3243 25.2339L13.8507 23.0909L17.8635 23.7779L19.5403 28.66L17.4251 32.4499L13.4699 33.2563C13.4153 33.2747 13.3622 33.2972 13.3109 33.3235ZM15.0837 35.1048L17.2853 34.6557L17.7333 36.8541C16.7863 36.374 15.8973 35.7871 15.0837 35.1048ZM27.9328 37.62C27.928 37.6771 27.928 37.7346 27.9328 37.7917C25.3672 38.5597 22.6328 38.5597 20.0672 37.7917C20.072 37.7346 20.072 37.6771 20.0672 37.62L19.2416 33.5731L21.3333 29.8333H26.6667L28.7552 33.5667L27.9328 37.62ZM30.2667 36.8552L30.7147 34.6568L32.9163 35.1059C32.1026 35.7878 31.2137 36.3744 30.2667 36.8541V36.8552ZM34.6891 33.3245C34.6378 33.2982 34.5847 33.2758 34.5301 33.2573L30.5749 32.4509L28.4597 28.66L30.1365 23.7757L34.1493 23.0888L37.6757 25.2317C37.7243 25.2569 37.7745 25.2787 37.8261 25.2968C37.6645 28.2387 36.5652 31.0516 34.6891 33.3235V33.3245ZM37.7483 22.7827L35.8283 21.6157L36.992 19.6957C37.3625 20.6917 37.6163 21.7272 37.7483 22.7816V22.7827ZM35.8016 17.556L33.7067 21.0024L29.584 21.7085L25.0667 18.6056V14.2749L27.9541 11.3875C27.991 11.3413 28.0238 11.292 28.0523 11.2403C31.3484 12.2593 34.1485 14.4664 35.9093 17.4333C35.8704 17.4696 35.8344 17.5088 35.8016 17.5507V17.556Z" fill="#0B8D99"/>
</g>
<defs>
<clipPath id="clip0_509_3912">
<rect width="32" height="32" fill="white" transform="translate(8 8.5)"/>
</clipPath>
</defs>
</svg>
