<svg width="48" height="49" viewBox="0 0 48 49" fill="none" xmlns="http://www.w3.org/2000/svg">
<circle cx="24" cy="24.5" r="24" fill="white"/>
<path d="M18.7296 24.7877H17.2237V23.2714C17.2237 23.0703 17.1444 22.8774 17.0032 22.7352C16.862 22.5931 16.6704 22.5132 16.4707 22.5132C16.2711 22.5132 16.0795 22.5931 15.9383 22.7352C15.7971 22.8774 15.7178 23.0703 15.7178 23.2714V24.7877H14.2119C14.0122 24.7877 13.8207 24.8676 13.6795 25.0098C13.5383 25.1519 13.459 25.3448 13.459 25.5459C13.459 25.7469 13.5383 25.9398 13.6795 26.082C13.8207 26.2242 14.0122 26.304 14.2119 26.304H15.7178V27.8204C15.7178 28.0215 15.7971 28.2143 15.9383 28.3565C16.0795 28.4987 16.2711 28.5785 16.4707 28.5785C16.6704 28.5785 16.862 28.4987 17.0032 28.3565C17.1444 28.2143 17.2237 28.0215 17.2237 27.8204V26.304H18.7296C18.9293 26.304 19.1208 26.2242 19.262 26.082C19.4032 25.9398 19.4825 25.7469 19.4825 25.5459C19.4825 25.3448 19.4032 25.1519 19.262 25.0098C19.1208 24.8676 18.9293 24.7877 18.7296 24.7877Z" fill="#0B8D99"/>
<path d="M31.5298 22.134C31.4309 22.134 31.333 22.1535 31.2416 22.1916C31.1502 22.2297 31.0672 22.2855 30.9973 22.356C30.9273 22.4264 30.8719 22.51 30.834 22.602C30.7962 22.694 30.7768 22.7926 30.7769 22.8922V23.6504C30.7769 23.8515 30.8562 24.0443 30.9974 24.1865C31.1386 24.3287 31.3301 24.4085 31.5298 24.4085C31.7295 24.4085 31.921 24.3287 32.0622 24.1865C32.2034 24.0443 32.2827 23.8515 32.2827 23.6504V22.8922C32.2828 22.7926 32.2634 22.694 32.2255 22.602C32.1877 22.51 32.1323 22.4264 32.0623 22.356C31.9924 22.2855 31.9094 22.2297 31.818 22.1916C31.7266 22.1535 31.6287 22.134 31.5298 22.134Z" fill="#0B8D99"/>
<path d="M31.5298 26.6831C31.4309 26.683 31.333 26.7026 31.2416 26.7407C31.1502 26.7788 31.0672 26.8346 30.9973 26.905C30.9273 26.9754 30.8719 27.0591 30.834 27.1511C30.7962 27.2431 30.7768 27.3417 30.7769 27.4413V28.1994C30.7769 28.4005 30.8562 28.5934 30.9974 28.7356C31.1386 28.8777 31.3301 28.9576 31.5298 28.9576C31.7295 28.9576 31.921 28.8777 32.0622 28.7356C32.2034 28.5934 32.2827 28.4005 32.2827 28.1994V27.4413C32.2828 27.3417 32.2634 27.2431 32.2255 27.1511C32.1877 27.0591 32.1323 26.9754 32.0623 26.905C31.9924 26.8346 31.9094 26.7788 31.818 26.7407C31.7266 26.7026 31.6287 26.683 31.5298 26.6831Z" fill="#0B8D99"/>
<path d="M34.1651 24.7878H33.4121C33.2124 24.7878 33.0209 24.8677 32.8797 25.0099C32.7385 25.1521 32.6592 25.3449 32.6592 25.546C32.6592 25.7471 32.7385 25.9399 32.8797 26.0821C33.0209 26.2243 33.2124 26.3042 33.4121 26.3042H34.1651C34.3648 26.3042 34.5563 26.2243 34.6975 26.0821C34.8387 25.9399 34.918 25.7471 34.918 25.546C34.918 25.3449 34.8387 25.1521 34.6975 25.0099C34.5563 24.8677 34.3648 24.7878 34.1651 24.7878Z" fill="#0B8D99"/>
<path d="M29.647 24.7876H28.8941C28.6944 24.7876 28.5028 24.8675 28.3616 25.0097C28.2204 25.1518 28.1411 25.3447 28.1411 25.5458C28.1411 25.7468 28.2204 25.9397 28.3616 26.0819C28.5028 26.2241 28.6944 26.3039 28.8941 26.3039H29.647C29.8467 26.3039 30.0382 26.2241 30.1794 26.0819C30.3206 25.9397 30.3999 25.7468 30.3999 25.5458C30.3999 25.3447 30.3206 25.1518 30.1794 25.0097C30.0382 24.8675 29.8467 24.7876 29.647 24.7876Z" fill="#0B8D99"/>
<path d="M31.5296 17.964H24.8155C25.0218 16.6851 25.7649 16.1738 26.6767 15.5622C27.8327 14.7862 29.2708 13.8206 29.2708 11.1405C29.2708 10.9394 29.1915 10.7466 29.0503 10.6044C28.9091 10.4622 28.7176 10.3823 28.5179 10.3823C28.3182 10.3823 28.1267 10.4622 27.9855 10.6044C27.8443 10.7466 27.7649 10.9394 27.7649 11.1405C27.7649 13.0094 26.9164 13.5794 25.8414 14.3005C24.8036 14.9972 23.5474 15.8578 23.2997 17.964H16.4708C14.4746 17.9664 12.5608 18.7659 11.1493 20.1873C9.73779 21.6086 8.94376 23.5357 8.94141 25.5457V33.8856C8.94257 34.8906 9.33958 35.8542 10.0454 36.5648C10.7511 37.2755 11.708 37.6753 12.7061 37.6764C17.0157 37.6764 18.2701 35.3738 19.3774 33.3421C20.3657 31.5282 21.1473 30.0947 24.0002 30.0947C26.8532 30.0947 27.6348 31.5282 28.623 33.3421C29.7304 35.3738 30.9848 37.6764 35.2943 37.6764C36.2925 37.6753 37.2493 37.2755 37.9551 36.5648C38.6609 35.8542 39.0579 34.8906 39.0591 33.8856V25.5457C39.0567 23.5357 38.2627 21.6086 36.8511 20.1873C35.4396 18.7659 33.5258 17.9664 31.5296 17.964ZM37.5532 33.8856C37.5525 34.4886 37.3143 35.0668 36.8909 35.4932C36.4674 35.9196 35.8932 36.1594 35.2943 36.1601C31.876 36.1601 30.9804 34.5164 29.9436 32.6129C28.9127 30.7219 27.7451 28.5784 24.0002 28.5784C20.2554 28.5784 19.0877 30.7219 18.0569 32.6129C17.0201 34.5164 16.1245 36.1601 12.7061 36.1601C12.1072 36.1594 11.5331 35.9196 11.1096 35.4932C10.6861 35.0668 10.4479 34.4886 10.4473 33.8856V25.5457C10.4491 23.9377 11.0843 22.396 12.2136 21.2589C13.3428 20.1218 14.8738 19.4822 16.4708 19.4804H31.5296C33.1266 19.4822 34.6577 20.1218 35.7869 21.2589C36.9161 22.396 37.5513 23.9377 37.5532 25.5457V33.8856Z" fill="#0B8D99"/>
</svg>
