<svg width="48" height="49" viewBox="0 0 48 49" fill="none" xmlns="http://www.w3.org/2000/svg">
<circle cx="24" cy="24.5" r="24" fill="white"/>
<g clip-path="url(#clip0_509_3957)">
<path d="M36.5636 8.89573C36.4636 8.77206 36.3371 8.67234 36.1935 8.60387C36.0499 8.53539 35.8929 8.49991 35.7338 8.5H31.4671C31.227 8.49999 30.994 8.58096 30.8057 8.72981C30.6173 8.87866 30.4847 9.0867 30.4292 9.32027L25.2911 30.9H15.4671C15.2354 30.9001 15.0101 30.9756 14.8252 31.1151C14.6402 31.2547 14.5057 31.4506 14.442 31.6733L12.3087 39.14C12.2633 39.2987 12.2554 39.4658 12.2855 39.6281C12.3157 39.7904 12.3831 39.9435 12.4824 40.0754C12.5818 40.2072 12.7104 40.3142 12.8581 40.3879C13.0059 40.4615 13.1687 40.4999 13.3338 40.5H29.3338C29.578 40.5 29.8148 40.4163 30.0046 40.2627C30.1945 40.1091 30.3259 39.8951 30.377 39.6563L36.777 9.7896C36.8103 9.63413 36.8084 9.47317 36.7715 9.31851C36.7346 9.16386 36.6636 9.01941 36.5636 8.89573ZM16.7962 38.3667H14.7482L16.2714 33.0333H18.3194L16.7962 38.3667ZM21.0628 38.3667H19.0148L20.538 33.0333H22.586L21.0628 38.3667ZM28.4708 38.3667H23.2815L24.8047 33.0333H26.1338C26.3738 33.0333 26.6069 32.9524 26.7952 32.8035C26.9836 32.6547 27.1162 32.4466 27.1716 32.2131L30.0591 20.0851L32.521 19.4696L28.4708 38.3667ZM33.0191 17.1453L30.6138 17.7469L31.0703 15.8269L33.4244 15.2392L33.0191 17.1453ZM33.9204 12.9192L31.625 13.4931L32.3098 10.6333H34.4143L33.9204 12.9192Z" fill="#0B8D99"/>
<path d="M22.9335 26.6334V23.4334C22.9335 23.1505 22.8211 22.8792 22.6211 22.6791C22.4211 22.4791 22.1498 22.3667 21.8669 22.3667H12.2669C11.984 22.3667 11.7127 22.4791 11.5126 22.6791C11.3126 22.8792 11.2002 23.1505 11.2002 23.4334V26.6334C11.2002 26.9163 11.3126 27.1876 11.5126 27.3876C11.7127 27.5877 11.984 27.7 12.2669 27.7H21.8669C22.1498 27.7 22.4211 27.5877 22.6211 27.3876C22.8211 27.1876 22.9335 26.9163 22.9335 26.6334ZM21.3335 26.1H17.0669H12.8002V23.9667H21.3335V26.1Z" fill="#0B8D99"/>
</g>
<defs>
<clipPath id="clip0_509_3957">
<rect width="32" height="32" fill="white" transform="translate(8 8.5)"/>
</clipPath>
</defs>
</svg>
