<svg width="48" height="49" viewBox="0 0 48 49" fill="none" xmlns="http://www.w3.org/2000/svg">
<circle cx="24" cy="24.5" r="24" fill="white"/>
<path d="M38.6028 9.13092C38.0474 8.98809 24.8784 5.72861 15.0552 15.5539C5.23204 25.3793 8.48832 38.5483 8.63221 39.1036C8.67983 39.2879 8.77592 39.456 8.9105 39.5906C9.04508 39.7252 9.21325 39.8213 9.39752 39.8689C11.3178 40.3073 13.2828 40.5191 15.2524 40.4999C18.5225 40.561 21.7717 39.968 24.8094 38.7559C27.8472 37.5439 30.6121 35.7371 32.9419 33.4416C42.7704 23.6142 39.5077 10.4484 39.3638 9.89196C39.3159 9.70899 39.2201 9.54207 39.0864 9.40833C38.9527 9.27459 38.7857 9.17884 38.6028 9.13092ZM16.5624 17.0611C19.1687 14.452 22.4083 12.5648 25.9635 11.5846L30.6854 16.3075L27.072 19.9209L25.778 18.6258C25.6797 18.524 25.5621 18.4428 25.4321 18.387C25.302 18.3311 25.1622 18.3017 25.0206 18.3005C24.8791 18.2992 24.7387 18.3262 24.6077 18.3798C24.4768 18.4334 24.3577 18.5125 24.2577 18.6126C24.1576 18.7127 24.0784 18.8317 24.0249 18.9627C23.9713 19.0937 23.9443 19.234 23.9455 19.3756C23.9467 19.5171 23.9762 19.657 24.032 19.787C24.0879 19.917 24.1691 20.0347 24.2709 20.133L25.5649 21.427L24.0001 22.9959L22.7094 21.6988C22.6102 21.5995 22.4924 21.5208 22.3628 21.4671C22.2332 21.4133 22.0943 21.3856 21.954 21.3856C21.8137 21.3855 21.6748 21.4131 21.5451 21.4668C21.4155 21.5204 21.2977 21.5991 21.1985 21.6982C21.0992 21.7974 21.0205 21.9152 20.9668 22.0448C20.913 22.1744 20.8853 22.3133 20.8853 22.4536C20.8852 22.5939 20.9128 22.7328 20.9665 22.8624C21.0201 22.9921 21.0988 23.1099 21.1979 23.2091L22.4962 24.4999L20.9283 26.0657L19.6343 24.7706C19.5353 24.6716 19.4178 24.593 19.2885 24.5394C19.1592 24.4858 19.0205 24.4582 18.8805 24.4581C18.7405 24.4581 18.6019 24.4856 18.4725 24.5391C18.3432 24.5927 18.2256 24.6712 18.1266 24.7701C18.0276 24.8691 17.949 24.9866 17.8954 25.1159C17.8417 25.2452 17.8141 25.3838 17.8141 25.5239C17.814 25.8066 17.9262 26.0778 18.1261 26.2778L19.4211 27.5729L15.8078 31.1851L11.0848 26.4622C12.0655 22.9069 13.953 19.6674 16.5624 17.0611ZM10.5583 37.9375C10.0391 34.9584 10.0308 31.9127 10.5338 28.9308L19.5629 37.961C16.5817 38.4635 13.5368 38.4556 10.5583 37.9375ZM31.439 31.9387C28.8325 34.5482 25.5925 36.4354 22.0368 37.4152L17.3149 32.6955L20.9283 29.0822L22.2222 30.3761C22.4233 30.5703 22.6925 30.6777 22.972 30.6753C23.2515 30.6729 23.5188 30.5608 23.7164 30.3632C23.914 30.1655 24.0261 29.8982 24.0286 29.6187C24.031 29.3392 23.9236 29.07 23.7294 28.869L22.4354 27.575L24.0001 26.0092L25.2952 27.3043C25.4962 27.4984 25.7655 27.6059 26.0449 27.6034C26.3244 27.601 26.5917 27.4889 26.7894 27.2913C26.987 27.0936 27.0991 26.8263 27.1015 26.5468C27.104 26.2674 26.9965 25.9981 26.8024 25.7971L25.5073 24.502L27.072 22.9373L28.3671 24.2313C28.5681 24.4255 28.8373 24.5329 29.1168 24.5305C29.3963 24.528 29.6636 24.4159 29.8613 24.2183C30.0589 24.0207 30.171 23.7534 30.1734 23.4739C30.1758 23.1944 30.0684 22.9252 29.8742 22.7241L28.5792 21.4302L32.1925 17.8168L36.9155 22.5408C35.9346 26.0948 34.0475 29.3332 31.439 31.9387ZM37.4623 20.0701L28.431 11.0389C31.4129 10.5363 34.4585 10.5443 37.4378 11.0623C37.9563 14.0418 37.9646 17.0878 37.4623 20.0701Z" fill="#0B8D99"/>
</svg>
