<svg width="19" height="24" viewBox="0 0 19 24" fill="none" xmlns="http://www.w3.org/2000/svg">
<path d="M18.0953 6.46156V17.5385C18.0953 21.9693 17.0209 23.0769 12.7232 23.0769H6.27681C1.97919 23.0769 0.904785 21.9693 0.904785 17.5385V6.46156C0.904785 2.03079 1.97919 0.923096 6.27681 0.923096H12.7232C17.0209 0.923096 18.0953 2.03079 18.0953 6.46156Z" stroke="white" stroke-width="1.5" stroke-linecap="round" stroke-linejoin="round"/>
<path d="M11.6487 4.80005H7.35107" stroke="white" stroke-width="1.5" stroke-linecap="round" stroke-linejoin="round"/>
<path d="M9.4998 19.8648C10.4195 19.8648 11.1651 19.0961 11.1651 18.1478C11.1651 17.1996 10.4195 16.4309 9.4998 16.4309C8.58007 16.4309 7.83447 17.1996 7.83447 18.1478C7.83447 19.0961 8.58007 19.8648 9.4998 19.8648Z" fill="white" stroke="white" stroke-width="1.5" stroke-linecap="round" stroke-linejoin="round"/>
</svg>
