<svg width="20" height="24" viewBox="0 0 20 24" fill="none" xmlns="http://www.w3.org/2000/svg">
<path d="M15.9478 1.6V2.1H16.4478H19.2896C19.3249 2.1 19.3728 2.11531 19.4181 2.16632C19.4651 2.21927 19.5 2.30253 19.5 2.4V7.99949C19.4986 9.36964 19.0141 10.673 18.1679 11.6259C17.3234 12.5769 16.1919 13.0985 15.0262 13.1H14.3401C14.3306 13.0985 14.3205 13.0957 14.3101 13.0914L14.0127 12.9673L13.7768 13.1868C12.8939 14.0087 11.8246 14.516 10.702 14.6567L10.2642 14.7115V15.1528V16.8V17.3H10.7642H15.0269C15.0623 17.3 15.1101 17.3153 15.1554 17.3663C15.2024 17.4193 15.2373 17.5025 15.2373 17.6V23.2C15.2373 23.2975 15.2024 23.3807 15.1554 23.4337C15.1101 23.4847 15.0623 23.5 15.0269 23.5H5.08062C5.04525 23.5 4.99742 23.4847 4.95211 23.4337C4.90509 23.3807 4.87017 23.2975 4.87017 23.2V17.6C4.87017 17.5025 4.90509 17.4193 4.95211 17.3663C4.99742 17.3153 5.04525 17.3 5.08062 17.3H9.3433H9.8433V16.8V15.1544V14.7131L9.40546 14.6583C8.28295 14.5176 7.21361 14.0103 6.33066 13.1884L6.09678 12.9707L5.80097 13.0915C5.7902 13.0959 5.77983 13.0986 5.76996 13.1H5.08126C3.91558 13.0985 2.78413 12.5769 1.9396 11.6259C1.09342 10.6731 0.608932 9.3698 0.607483 7.99975V2.4C0.607483 2.30254 0.642405 2.21927 0.689427 2.16632C0.734734 2.11531 0.782566 2.1 0.817931 2.1H3.65972H4.15972V1.6V0.8C4.15972 0.702536 4.19464 0.619273 4.24167 0.566323C4.28697 0.515305 4.3348 0.5 4.37017 0.5H15.7373C15.7727 0.5 15.8205 0.515305 15.8658 0.566322C15.9129 0.619274 15.9478 0.702538 15.9478 0.8V1.6ZM1.02838 8L1.02838 8.00142C1.0315 9.09599 1.39432 10.1587 2.05864 10.983C2.72404 11.8087 3.64922 12.3406 4.66205 12.4552L5.65744 12.5679L5.14914 11.7047C4.50503 10.6109 4.1591 9.3221 4.15972 8.00023V8V3.2V2.7H3.65972H1.52838H1.02838V3.2L1.02838 8ZM14.8164 18.4V17.9H14.3164H5.79107H5.29107V18.4V22.4V22.9H5.79107H14.3164H14.8164V22.4V18.4ZM5.08062 1.1H4.58062V1.6V8C4.58062 9.59992 5.1445 11.1445 6.16336 12.2918C7.18393 13.441 8.58174 14.1 10.0538 14.1C11.5258 14.1 12.9236 13.441 13.9441 12.2918C14.963 11.1445 15.5269 9.59992 15.5269 8V1.6V1.1H15.0269H5.08062ZM19.0791 8.00142V8V3.2V2.7H18.5791H16.4478H15.9478V3.2V8V8.00023C15.9484 9.3221 15.6025 10.6109 14.9584 11.7047L14.4501 12.5679L15.4455 12.4552C16.4583 12.3406 17.3835 11.8087 18.0489 10.983C18.7132 10.1587 19.076 9.09599 19.0791 8.00142Z" fill="white" stroke="white"/>
<path d="M6.50152 6.40039C6.68995 6.40039 6.87065 6.31611 7.00389 6.16608C7.13712 6.01605 7.21197 5.81256 7.21197 5.60039V3.20039C7.21197 2.98822 7.13712 2.78473 7.00389 2.63471C6.87065 2.48468 6.68995 2.40039 6.50152 2.40039C6.3131 2.40039 6.1324 2.48468 5.99916 2.63471C5.86593 2.78473 5.79108 2.98822 5.79108 3.20039V5.60039C5.79108 5.81256 5.86593 6.01605 5.99916 6.16608C6.1324 6.31611 6.3131 6.40039 6.50152 6.40039Z" fill="white"/>
<path d="M9.34332 21.6H10.7642C10.9526 21.6 11.1333 21.5157 11.2666 21.3657C11.3998 21.2157 11.4747 21.0122 11.4747 20.8C11.4747 20.5878 11.3998 20.3843 11.2666 20.2343C11.1333 20.0843 10.9526 20 10.7642 20H9.34332C9.1549 20 8.97419 20.0843 8.84096 20.2343C8.70772 20.3843 8.63287 20.5878 8.63287 20.8C8.63287 21.0122 8.70772 21.2157 8.84096 21.3657C8.97419 21.5157 9.1549 21.6 9.34332 21.6Z" fill="white"/>
</svg>
